<?xml version="1.0" encoding="UTF-8" standalone="no"?>
<!DOCTYPE svg PUBLIC "-//W3C//DTD SVG 1.1//EN"
 "http://www.w3.org/Graphics/SVG/1.1/DTD/svg11.dtd">
<!-- Generated by graphviz version 2.26.3 (20100126.1600)
 -->
<!-- Title: G Pages: 1 -->
<svg width="332pt" height="258pt"
 viewBox="0.00 0.00 332.00 258.00" xmlns="http://www.w3.org/2000/svg" xmlns:xlink="http://www.w3.org/1999/xlink">
<g id="graph1" class="graph" transform="scale(1 1) rotate(0) translate(4 254)">
<title>G</title>
<polygon fill="white" stroke="white" points="-4,5 -4,-254 329,-254 329,5 -4,5"/>
<g id="graph2" class="cluster"><title>cluster_Global</title>
<polyline fill="none" stroke="gray" points="20,-8 304,-8 "/>
<path fill="none" stroke="gray" d="M304,-8C310,-8 316,-14 316,-20"/>
<polyline fill="none" stroke="gray" points="316,-20 316,-230 "/>
<path fill="none" stroke="gray" d="M316,-230C316,-236 310,-242 304,-242"/>
<polyline fill="none" stroke="gray" points="304,-242 20,-242 "/>
<path fill="none" stroke="gray" d="M20,-242C14,-242 8,-236 8,-230"/>
<polyline fill="none" stroke="gray" points="8,-230 8,-20 "/>
<path fill="none" stroke="gray" d="M8,-20C8,-14 14,-8 20,-8"/>
<text text-anchor="middle" x="162" y="-228.1" font-family="Times Roman,serif" font-size="11.00" fill="gray">\</text>
</g>
<g id="graph3" class="cluster"><title>cluster_\CJCIPackages</title>
<polyline fill="none" stroke="gray" points="28,-16 296,-16 "/>
<path fill="none" stroke="gray" d="M296,-16C302,-16 308,-22 308,-28"/>
<polyline fill="none" stroke="gray" points="308,-28 308,-200 "/>
<path fill="none" stroke="gray" d="M308,-200C308,-206 302,-212 296,-212"/>
<polyline fill="none" stroke="gray" points="296,-212 28,-212 "/>
<path fill="none" stroke="gray" d="M28,-212C22,-212 16,-206 16,-200"/>
<polyline fill="none" stroke="gray" points="16,-200 16,-28 "/>
<path fill="none" stroke="gray" d="M16,-28C16,-22 22,-16 28,-16"/>
<text text-anchor="middle" x="162" y="-198.1" font-family="Times Roman,serif" font-size="11.00" fill="gray">CJCIPackages</text>
</g>
<g id="graph4" class="cluster"><title>cluster_\CJCIPackages\Res_Storage</title>
<polyline fill="none" stroke="gray" points="36,-24 288,-24 "/>
<path fill="none" stroke="gray" d="M288,-24C294,-24 300,-30 300,-36"/>
<polyline fill="none" stroke="gray" points="300,-36 300,-170 "/>
<path fill="none" stroke="gray" d="M300,-170C300,-176 294,-182 288,-182"/>
<polyline fill="none" stroke="gray" points="288,-182 36,-182 "/>
<path fill="none" stroke="gray" d="M36,-182C30,-182 24,-176 24,-170"/>
<polyline fill="none" stroke="gray" points="24,-170 24,-36 "/>
<path fill="none" stroke="gray" d="M24,-36C24,-30 30,-24 36,-24"/>
<text text-anchor="middle" x="162" y="-168.1" font-family="Times Roman,serif" font-size="11.00" fill="gray">Res_Storage</text>
</g>
<g id="graph5" class="cluster"><title>cluster_\CJCIPackages\Res_Storage\FileManagers</title>
<polyline fill="none" stroke="gray" points="44,-78 280,-78 "/>
<path fill="none" stroke="gray" d="M280,-78C286,-78 292,-84 292,-90"/>
<polyline fill="none" stroke="gray" points="292,-90 292,-140 "/>
<path fill="none" stroke="gray" d="M292,-140C292,-146 286,-152 280,-152"/>
<polyline fill="none" stroke="gray" points="280,-152 44,-152 "/>
<path fill="none" stroke="gray" d="M44,-152C38,-152 32,-146 32,-140"/>
<polyline fill="none" stroke="gray" points="32,-140 32,-90 "/>
<path fill="none" stroke="gray" d="M32,-90C32,-84 38,-78 44,-78"/>
<text text-anchor="middle" x="162" y="-138.1" font-family="Times Roman,serif" font-size="11.00" fill="gray">FileManagers</text>
</g>
<!-- \\CJCIPackages\\Res_Storage\\FileManagers\\RS_File -->
<g id="node5" class="node"><title>\\CJCIPackages\\Res_Storage\\FileManagers\\RS_File</title>
<polygon fill="none" stroke="black" points="95,-122 41,-122 41,-86 95,-86 95,-122"/>
<text text-anchor="middle" x="68" y="-101.1" font-family="Times Roman,serif" font-size="11.00">RS_File</text>
</g>
<!-- \\CJCIPackages\\Res_Storage\\FileManagers\\RS_File_Encrypted -->
<g id="node6" class="node"><title>\\CJCIPackages\\Res_Storage\\FileManagers\\RS_File_Encrypted</title>
<polygon fill="none" stroke="black" points="284,-122 168,-122 168,-86 284,-86 284,-122"/>
<text text-anchor="middle" x="226" y="-101.1" font-family="Times Roman,serif" font-size="11.00">RS_File_Encrypted</text>
</g>
<!-- \\CJCIPackages\\Res_Storage\\FileManagers\\RS_File_Encrypted&#45;&gt;\\CJCIPackages\\Res_Storage\\FileManagers\\RS_File -->
<g id="edge6" class="edge"><title>\\CJCIPackages\\Res_Storage\\FileManagers\\RS_File_Encrypted&#45;&gt;\\CJCIPackages\\Res_Storage\\FileManagers\\RS_File</title>
<path fill="none" stroke="black" d="M167.616,-104C146.944,-104 124.247,-104 105.746,-104"/>
<polygon fill="none" stroke="black" points="105.663,-100.5 95.6627,-104 105.663,-107.5 105.663,-100.5"/>
</g>
<!-- \\CJCIPackages\\Res_Storage\\Res_Storage -->
<g id="node7" class="node"><title>\\CJCIPackages\\Res_Storage\\Res_Storage</title>
<polygon fill="none" stroke="black" points="269,-68 183,-68 183,-32 269,-32 269,-68"/>
<text text-anchor="middle" x="226" y="-47.1" font-family="Times Roman,serif" font-size="11.00">Res_Storage</text>
</g>
</g>
</svg>
