<?xml version="1.0" encoding="UTF-8" standalone="no"?>
<!DOCTYPE svg PUBLIC "-//W3C//DTD SVG 1.1//EN"
 "http://www.w3.org/Graphics/SVG/1.1/DTD/svg11.dtd">
<!-- Generated by graphviz version 2.26.3 (20100126.1600)
 -->
<!-- Title: G Pages: 1 -->
<svg width="284pt" height="152pt"
 viewBox="0.00 0.00 284.00 152.00" xmlns="http://www.w3.org/2000/svg" xmlns:xlink="http://www.w3.org/1999/xlink">
<g id="graph1" class="graph" transform="scale(1 1) rotate(0) translate(4 148)">
<title>G</title>
<polygon fill="white" stroke="white" points="-4,5 -4,-148 281,-148 281,5 -4,5"/>
<g id="graph2" class="cluster"><title>cluster_Global</title>
<polyline fill="none" stroke="gray" points="20,-8 256,-8 "/>
<path fill="none" stroke="gray" d="M256,-8C262,-8 268,-14 268,-20"/>
<polyline fill="none" stroke="gray" points="268,-20 268,-124 "/>
<path fill="none" stroke="gray" d="M268,-124C268,-130 262,-136 256,-136"/>
<polyline fill="none" stroke="gray" points="256,-136 20,-136 "/>
<path fill="none" stroke="gray" d="M20,-136C14,-136 8,-130 8,-124"/>
<polyline fill="none" stroke="gray" points="8,-124 8,-20 "/>
<path fill="none" stroke="gray" d="M8,-20C8,-14 14,-8 20,-8"/>
<text text-anchor="middle" x="138" y="-122.1" font-family="Times Roman,serif" font-size="11.00" fill="gray">\</text>
</g>
<!-- \\Res_Storage -->
<g id="node2" class="node"><title>\\Res_Storage</title>
<polygon fill="none" stroke="black" points="245,-106 159,-106 159,-70 245,-70 245,-106"/>
<text text-anchor="middle" x="202" y="-85.1" font-family="Times Roman,serif" font-size="11.00">Res_Storage</text>
</g>
<!-- \\RS_File -->
<g id="node3" class="node"><title>\\RS_File</title>
<polygon fill="none" stroke="black" points="71,-52 17,-52 17,-16 71,-16 71,-52"/>
<text text-anchor="middle" x="44" y="-31.1" font-family="Times Roman,serif" font-size="11.00">RS_File</text>
</g>
<!-- \\RS_File_Encrypted -->
<g id="node4" class="node"><title>\\RS_File_Encrypted</title>
<polygon fill="none" stroke="black" points="260,-52 144,-52 144,-16 260,-16 260,-52"/>
<text text-anchor="middle" x="202" y="-31.1" font-family="Times Roman,serif" font-size="11.00">RS_File_Encrypted</text>
</g>
<!-- \\RS_File_Encrypted&#45;&gt;\\RS_File -->
<g id="edge3" class="edge"><title>\\RS_File_Encrypted&#45;&gt;\\RS_File</title>
<path fill="none" stroke="black" d="M143.616,-34C122.944,-34 100.247,-34 81.7461,-34"/>
<polygon fill="none" stroke="black" points="81.6627,-30.5001 71.6627,-34 81.6627,-37.5001 81.6627,-30.5001"/>
</g>
</g>
</svg>
