<?xml version="1.0" encoding="UTF-8" standalone="no"?>
<!DOCTYPE svg PUBLIC "-//W3C//DTD SVG 1.1//EN"
 "http://www.w3.org/Graphics/SVG/1.1/DTD/svg11.dtd">
<!-- Generated by graphviz version 2.26.3 (20100126.1600)
 -->
<!-- Title: G Pages: 1 -->
<svg width="318pt" height="258pt"
 viewBox="0.00 0.00 318.00 258.00" xmlns="http://www.w3.org/2000/svg" xmlns:xlink="http://www.w3.org/1999/xlink">
<g id="graph1" class="graph" transform="scale(1 1) rotate(0) translate(4 254)">
<title>G</title>
<polygon fill="white" stroke="white" points="-4,5 -4,-254 315,-254 315,5 -4,5"/>
<g id="graph2" class="cluster"><title>cluster_Global</title>
<polyline fill="none" stroke="gray" points="20,-8 290,-8 "/>
<path fill="none" stroke="gray" d="M290,-8C296,-8 302,-14 302,-20"/>
<polyline fill="none" stroke="gray" points="302,-20 302,-230 "/>
<path fill="none" stroke="gray" d="M302,-230C302,-236 296,-242 290,-242"/>
<polyline fill="none" stroke="gray" points="290,-242 20,-242 "/>
<path fill="none" stroke="gray" d="M20,-242C14,-242 8,-236 8,-230"/>
<polyline fill="none" stroke="gray" points="8,-230 8,-20 "/>
<path fill="none" stroke="gray" d="M8,-20C8,-14 14,-8 20,-8"/>
<text text-anchor="middle" x="155" y="-228.1" font-family="Times Roman,serif" font-size="11.00" fill="gray">\</text>
</g>
<g id="graph3" class="cluster"><title>cluster_\CJCI</title>
<polyline fill="none" stroke="gray" points="28,-16 282,-16 "/>
<path fill="none" stroke="gray" d="M282,-16C288,-16 294,-22 294,-28"/>
<polyline fill="none" stroke="gray" points="294,-28 294,-200 "/>
<path fill="none" stroke="gray" d="M294,-200C294,-206 288,-212 282,-212"/>
<polyline fill="none" stroke="gray" points="282,-212 28,-212 "/>
<path fill="none" stroke="gray" d="M28,-212C22,-212 16,-206 16,-200"/>
<polyline fill="none" stroke="gray" points="16,-200 16,-28 "/>
<path fill="none" stroke="gray" d="M16,-28C16,-22 22,-16 28,-16"/>
<text text-anchor="middle" x="155" y="-198.1" font-family="Times Roman,serif" font-size="11.00" fill="gray">CJCI</text>
</g>
<g id="graph4" class="cluster"><title>cluster_\CJCI\ResStorage</title>
<polyline fill="none" stroke="gray" points="36,-24 274,-24 "/>
<path fill="none" stroke="gray" d="M274,-24C280,-24 286,-30 286,-36"/>
<polyline fill="none" stroke="gray" points="286,-36 286,-170 "/>
<path fill="none" stroke="gray" d="M286,-170C286,-176 280,-182 274,-182"/>
<polyline fill="none" stroke="gray" points="274,-182 36,-182 "/>
<path fill="none" stroke="gray" d="M36,-182C30,-182 24,-176 24,-170"/>
<polyline fill="none" stroke="gray" points="24,-170 24,-36 "/>
<path fill="none" stroke="gray" d="M24,-36C24,-30 30,-24 36,-24"/>
<text text-anchor="middle" x="155" y="-168.1" font-family="Times Roman,serif" font-size="11.00" fill="gray">ResStorage</text>
</g>
<g id="graph5" class="cluster"><title>cluster_\CJCI\ResStorage\FileManagers</title>
<polyline fill="none" stroke="gray" points="44,-78 266,-78 "/>
<path fill="none" stroke="gray" d="M266,-78C272,-78 278,-84 278,-90"/>
<polyline fill="none" stroke="gray" points="278,-90 278,-140 "/>
<path fill="none" stroke="gray" d="M278,-140C278,-146 272,-152 266,-152"/>
<polyline fill="none" stroke="gray" points="266,-152 44,-152 "/>
<path fill="none" stroke="gray" d="M44,-152C38,-152 32,-146 32,-140"/>
<polyline fill="none" stroke="gray" points="32,-140 32,-90 "/>
<path fill="none" stroke="gray" d="M32,-90C32,-84 38,-78 44,-78"/>
<text text-anchor="middle" x="155" y="-138.1" font-family="Times Roman,serif" font-size="11.00" fill="gray">FileManagers</text>
</g>
<!-- \\CJCI\\ResStorage\\FileManagers\\RSFile -->
<g id="node5" class="node"><title>\\CJCI\\ResStorage\\FileManagers\\RSFile</title>
<polygon fill="none" stroke="black" points="94,-122 40,-122 40,-86 94,-86 94,-122"/>
<text text-anchor="middle" x="67" y="-101.1" font-family="Times Roman,serif" font-size="11.00">RSFile</text>
</g>
<!-- \\CJCI\\ResStorage\\FileManagers\\RSFileEncrypted -->
<g id="node6" class="node"><title>\\CJCI\\ResStorage\\FileManagers\\RSFileEncrypted</title>
<polygon fill="none" stroke="black" points="270,-122 166,-122 166,-86 270,-86 270,-122"/>
<text text-anchor="middle" x="218" y="-101.1" font-family="Times Roman,serif" font-size="11.00">RSFileEncrypted</text>
</g>
<!-- \\CJCI\\ResStorage\\FileManagers\\RSFileEncrypted&#45;&gt;\\CJCI\\ResStorage\\FileManagers\\RSFile -->
<g id="edge6" class="edge"><title>\\CJCI\\ResStorage\\FileManagers\\RSFileEncrypted&#45;&gt;\\CJCI\\ResStorage\\FileManagers\\RSFile</title>
<path fill="none" stroke="black" d="M165.611,-104C145.438,-104 122.827,-104 104.351,-104"/>
<polygon fill="none" stroke="black" points="104.278,-100.5 94.278,-104 104.278,-107.5 104.278,-100.5"/>
</g>
<!-- \\CJCI\\ResStorage\\ResStorage -->
<g id="node7" class="node"><title>\\CJCI\\ResStorage\\ResStorage</title>
<polygon fill="none" stroke="black" points="258,-68 178,-68 178,-32 258,-32 258,-68"/>
<text text-anchor="middle" x="218" y="-47.1" font-family="Times Roman,serif" font-size="11.00">ResStorage</text>
</g>
</g>
</svg>
